<?xml version="1.0" encoding="utf-8"?>
<!-- Generator: Adobe Illustrator 21.1.0, SVG Export Plug-In . SVG Version: 6.00 Build 0)  -->
<svg version="1.1" id="Calque_1" xmlns="http://www.w3.org/2000/svg" xmlns:xlink="http://www.w3.org/1999/xlink" x="0px" y="0px"
	 viewBox="0 0 612 612" style="enable-background:new 0 0 612 612;" xml:space="preserve">
<path d="M305.5,26.8C151.1,26.8,26,151.9,26,306.3s125.1,279.5,279.5,279.5S585,460.6,585,306.3l0,0
	C585,151.9,459.9,26.8,305.5,26.8z M313.7,568.8v-16.9h-16.9C168.3,546.5,65.6,443.2,61,314.8v-16.9H42.7
	C47.5,159.6,158.5,48.6,296.7,43.7v16.9h16.9C442.1,64.8,545.3,168,549.4,296.4v16.9h16.9C563.7,452.3,452.6,564.7,313.7,568.8z"/>
<path d="M370.2,338.8c1.2,19.4-6,38.4-19.8,52.2c-12.5,12.9-30.1,19.6-48,18.4c-34.7,1.9-64.4-24.7-66.3-59.4c-0.1-2.3-0.1-4.6,0-7
	c-0.8-25.8,15.2-49.2,39.5-57.9c12.9-5.1,26.1-9.4,39.5-12.7c18.4-4.8,30.9-21.9,29.6-40.9c0.9-12.2-3.8-24.1-12.7-32.5
	c-8-6.5-18-10-28.2-9.9c-10.8-0.6-21.4,2.9-29.6,9.9c-8,8.4-12.5,19.5-12.7,31.1c0.2,6.7,1.2,13.3,2.8,19.8h-33.9
	c-1.2-7-1.7-14.1-1.4-21.2c-0.9-18.7,5.7-37,18.4-50.8c14.8-15,35.5-22.7,56.5-21.2c20.3-1.5,40.3,5.7,55.1,19.8
	c14.4,14.6,22,34.6,21.2,55.1c0.5,16.4-5,32.5-15.5,45.2c-9.9,10.5-21.9,18.7-35.3,24c-11.3,4.2-22.6,7.1-33.9,11.3
	c-13.7,4.8-22.8,17.9-22.6,32.5c-0.8,9.1,2.9,18.1,9.9,24c6.1,5.8,14.2,8.9,22.6,8.5c8.4,0.7,16.7-2.4,22.6-8.5
	c7.4-8.6,11.5-19.7,11.3-31.1h31.1L370.2,338.8z M303.8,433.3c13.3,0,24,10.7,24,24s-10.7,24-24,24c-13.3,0-24-10.7-24-24
	c-0.1-13.2,10.5-23.9,23.7-24C303.6,433.3,303.7,433.3,303.8,433.3z"/>
</svg>
